<?xml version="1.0" encoding="UTF-8"?>
<svg id="Layer_1" xmlns="http://www.w3.org/2000/svg" version="1.1" viewBox="0 0 413.9 426.7">
  <!-- Generator: Adobe Illustrator 30.1.0, SVG Export Plug-In . SVG Version: 2.1.1 Build 136)  -->
  <defs>
    <style>
      .st0 {
        fill: #e8e8e9;
      }

      .st1 {
        fill: #1b7f56;
      }
    </style>
  </defs>
  <path class="st0" d="M207.5,376.8c-6.9,22.1-23.4,38.1-41.9,45.2-24,9.1-48.1,4.7-67.4-9.5s-29.7-34.3-29.9-57.2l-.3-38.1c-10.5-.3-19.4-2.1-28.9-6.8C3.9,292.7-12.6,245.6,11.2,213.1l48.1-65.7c5.3-7.2,8.8-13.9,8.8-23.3v-34.8c-.1-22.2,6.9-42.9,21.5-59.8C104.9,11.9,126.8.1,150.8,0h111.3c45.8-.1,84,36.9,84.4,82.3l.3,42.1c0,8.5,3.3,15.4,8.3,22.1l48.4,65.3c6.2,8.3,8.7,18.2,9.9,28.4,4.8,40.2-25.5,75.8-66.5,76.9l-.3,37.5c-.2,23.8-12.5,45.3-32,58.9-19.2,13.5-42.8,17.1-66.1,8-18.3-7.1-34.1-23.3-41-44.9h0ZM308.9,177.4c3.1-9.8,2.6-18.4,3-28.1,1.8-40.1-32.4-72.1-72.4-66.5-25.1,3.5-26.5,18.3-39,10.2-5-3.2-10.1-6.4-15.8-8.2-37.3-11.2-75.5,13.2-80.9,51.9-1.5,10.5-1.2,21,.3,31.6,4.8,31.7,31.9,53.6,64.1,53.6h78.9c28.9,0,53-17.1,61.7-44.6h0Z"/>
  <path class="st1" d="M308.9,177.4c-8.7,27.6-32.8,44.6-61.7,44.6h-78.8c-32.2,0-59.4-21.8-64.1-53.6-1.6-10.6-1.8-21.1-.3-31.6,5.3-38.7,43.6-63.1,80.9-51.9,5.8,1.7,10.8,4.9,15.8,8.2,12.5,8.1,13.9-6.7,39-10.2,40-5.6,74.1,26.4,72.4,66.5-.4,9.7,0,18.3-3,28.1h0ZM183.9,160c0-6.6.2-12.6-.3-18.4-.9-10-9.6-16.8-18.9-16.6-8.7.2-17.1,7.2-17.8,16.8-.5,6.6-.4,13.5,0,20.3.5,10.1,10.2,17.2,19.7,16.5s17.1-8.3,17.3-18.6h0ZM268.4,159c0-6.3,0-12-.4-17.5-1-10.4-10.9-17.3-20.2-16.4-9.8.9-17,9-16.9,19.3v16.1c.2,10.5,9.9,18.8,19.8,18.1,9.7-.7,17.9-8.8,17.7-19.6h0Z"/>
  <path class="st0" d="M183.9,160c-.1,10.3-8.2,18-17.3,18.6-9.5.7-19.2-6.5-19.7-16.5-.4-6.8-.4-13.6,0-20.3.7-9.6,9.1-16.6,17.8-16.8,9.3-.2,18.1,6.6,18.9,16.6.5,5.8.4,11.8.3,18.4Z"/>
  <path class="st0" d="M268.4,159c.2,10.8-8,18.9-17.7,19.6-9.9.7-19.6-7.6-19.7-18.1v-16.1c-.2-10.3,7-18.4,16.8-19.3,9.3-.9,19.2,6,20.2,16.4.5,5.5.3,11.2.4,17.5h0Z"/>
</svg>