<?xml version="1.0" encoding="UTF-8"?>
<svg id="Layer_1" data-name="Layer 1" xmlns="http://www.w3.org/2000/svg" viewBox="0 0 780.4 122.02">
  <defs>
    <style>
      .cls-1 {
        fill: #133323;
      }
    </style>
  </defs>
  <path class="cls-1" d="M13.48,113.38c-4.24-2.62-8.23-6.21-9.96-10.19,1.93-5.53,6.38-10.45,10.92-13.64,4.09-2.88,15.44,13.63,35.46,9.72,8.55-1.67,16.08-7.19,16.68-16.96-13.52,8.56-29.25,9.51-43.58,1.96C10.43,77.64,1.54,64.8.18,49.13-1.86,25.52,13.7,4.16,37.17.63c11.01-1.65,21.39.64,29.85,7.73.42-2.05,1.61-6.41,3.37-6.5,5.97-.3,12.34-.27,18.19-.04,1.19,2.53,1.51,5.51,1.5,8.39l-.32,70.92c-.07,15.52-8.74,29.28-22.59,35.71-17.25,8.01-37.34,6.63-53.68-3.46ZM42.26,22.81c-13.22,2-20.93,13.72-18.88,25.72,2.05,12.02,13.19,20.08,25.23,18.53s20.44-12.69,18.86-25.33c-1.44-11.49-12.34-20.86-25.2-18.92Z"/>
  <path class="cls-1" d="M712.38,87.85c-2.41-.02-4.69-2.29-4.68-4.61l.14-47.09c.01-4.86-2.27-10.07-6.46-12.26-4.68-2.44-10.03-1.53-14.24,1.46-3.37,2.4-5.71,7.35-5.71,12.42l.04,46.16c0,2.25-3.04,4.13-5,4.12l-13.42-.03c-2.37,0-4.58-2.3-4.59-4.84l-.32-77.06c-.01-2.87,2.38-4.64,4.9-4.63l15.98.09,2.6,4.85c12.14-9.09,31.31-9.28,41.15,5,9.09-10.58,23.14-14.04,36.73-9.16,11.5,4.13,20.69,16.07,20.74,29.97l.18,50.96c0,2.67-2.63,4.95-4.93,4.95l-13.48-.03c-2.41,0-4.72-2.25-4.73-4.86l-.24-48.47c-.03-5.13-4.45-9.98-7.88-11.27-5.56-2.1-11.16-.56-14.76,4.01-2.4,3.05-3.72,7.48-3.71,11.57l.06,43.98c0,2.88-2.77,4.9-5.27,4.88l-13.07-.13Z"/>
  <path class="cls-1" d="M188.37,66.79c11.48,2.71,21.19-1.49,29.1-10.55l15.01,11.65c-2.11,4.63-4.1,8.05-7.66,10.99-15.75,13-38.77,14.99-56.12,3.71-13.77-8.95-20.55-24.35-19.73-40.48.77-15.16,9.89-30.4,24.31-37.38,19.46-9.42,42.44-4.13,54.98,13.26,7.75,10.74,11.43,34.77,2.02,34.77l-58.01-.03c1.91,7.21,8.58,12.3,16.11,14.08ZM212.17,34.08c-4.24-9.26-12.02-12.36-20.38-12.03-7.43.3-15.18,4.37-18.92,12.46l39.3-.44Z"/>
  <path class="cls-1" d="M278.03,66.7c14.86,4.33,21.21-4.62,31.11-9.82l13.82,10.64c-.77,3.02-2.37,5.63-4.66,8.04-15.85,16.63-43.08,19.49-61.72,5.2-14.09-10.8-19.26-29.15-15.75-46.14,3.91-18.88,19.24-32.27,38.42-34.25,13.14-1.36,25.95,2.96,34.97,12.1,16.01,16.23,14.18,40.26,8.05,40.26l-58.83-.05c1.69,7.59,7.83,12.04,14.6,14.02ZM302.55,34.15c-4.49-9.95-12.38-12.71-20.74-12.2-7.15.43-14.59,4.35-17.49,12.53l38.23-.33Z"/>
  <path class="cls-1" d="M511.64,89.82c-23.95-1.54-41.33-21.27-41.39-44.64-.05-20,12.58-37.48,31.39-43.08,26.71-7.95,53.2,8.53,57.54,35.99,2.18,13.82-1.72,27.27-10.98,37.52-8.79,9.71-22,15.14-36.56,14.21ZM527.88,63.26c9.19-6.74,11.56-18.71,7.06-28-4.6-9.49-14.94-14.9-25.83-12.04-13.69,3.59-20.25,19.12-14.1,31.55,5.8,11.74,21.37,16.93,32.87,8.49Z"/>
  <path class="cls-1" d="M603.66,89.66c-20.56-1.86-36.28-17.63-39.28-37.36-3.19-20.98,7.71-40.66,26.07-48.51,19.82-8.47,42.31-2.31,54.62,15.34,10.34,14.83,11.21,33.29,1.9,49.01-8.41,14.19-24.84,23.19-43.3,21.52ZM605.16,22.69c-13.03,1.94-20.82,13.88-18.84,25.87,1.97,11.94,13.23,20.2,25.28,18.52,12.12-1.68,20.46-12.96,18.88-25.33-1.5-11.69-12.21-21.02-25.32-19.07Z"/>
  <path class="cls-1" d="M355.06,40.69l-.26,42.46c-.02,3.24-2.56,4.99-5.41,4.95l-12.4-.16c-2.45-.03-5.07-1.98-5.07-4.73l-.14-77.95c0-1.42,2.13-3.64,3.32-3.64h17.06s2.87,6.5,2.87,6.5c9.88-8.69,24.3-10.72,37.15-4.62,9.9,4.7,19.16,16.27,19.24,29.13l.29,50.44c.02,2.96-2.71,4.85-5.28,4.85l-12.4-.03c-2.53,0-5.08-2.07-5.09-4.81l-.18-45.86c-.04-9.22-7.88-15.49-16.57-14.74-9.46.82-17.07,7.96-17.13,18.21Z"/>
  <path class="cls-1" d="M114.47,88.05l-13.48-.09c-2.22-.01-4.81-2.1-4.81-4.74l.14-78.07c0-1.59,2.35-3.66,3.67-3.64l16.97.33c1.5,1.88,1.89,5.16,2.65,9.07,8.23-11.58,30.06-12.56,30.51-6.75.36,4.73.25,9.53,0,13.92s-3.98,5.95-7.74,5.78c-13.23-.59-23.38,8.22-23.4,21.3l-.06,38.11c0,2.11-2.54,4.78-4.46,4.77Z"/>
  <path class="cls-1" d="M437.16,88.06l-14.15-.05c-2.38,0-4.58-2.14-4.58-4.8l-.13-77.08c0-2.15,1.85-4.53,3.79-4.51l16.75.16,2.76,8.2c7.89-7.81,18.89-11.86,29.74-7.58.77,5.68.89,11.5-.01,17.29-.5,3.18-5.07,4.51-8.03,4.2-11.84-1.22-22.31,7.19-22.34,19.25l-.11,40.11c0,1.77-1.85,4.8-3.67,4.79Z"/>
</svg>