<?xml version="1.0" encoding="UTF-8"?>
<svg id="Layer_1" xmlns="http://www.w3.org/2000/svg" version="1.1" viewBox="0 0 600 600">
  <!-- Generator: Adobe Illustrator 30.1.0, SVG Export Plug-In . SVG Version: 2.1.1 Build 136)  -->
  <defs>
    <style>
      .st0 {
        fill: #1a7c55;
      }
    </style>
  </defs>
  <path class="st0" d="M350.2,150.5c13.5,2.5,27.6,12.8,27.6,27.7v301.7c0,11.8-10.7,24.7-22,26.7l-160,28.1-25.9,4.4c-9.5,1.6-18.9-.6-25.8-6.6s-10.2-14.5-10.2-24.7V91.2c0-16.7,11.6-31.7,29.2-31.7h273.7c14.2,0,28.9,11.9,28.9,26.7v426.7c.1,14.1-11.2,25.3-24.8,26.4s-27.5-10.6-27.5-25.7l-.2-402.7-224.9.4,161.8,39.3ZM325.4,459.6V197.8s-138.6-32.9-138.6-32.9v318.2s138.6-23.6,138.6-23.6Z"/>
</svg>