<?xml version="1.0" encoding="UTF-8"?>
<svg id="Layer_1" data-name="Layer 1" xmlns="http://www.w3.org/2000/svg" viewBox="0 0 413.87 426.7">
  <defs>
    <style>
      .cls-1 {
        fill: #e8e8e9;
      }

      .cls-2 {
        fill: #1b7f56;
      }
    </style>
  </defs>
  <path class="cls-2" d="M207.48,376.78c-6.85,22.11-23.36,38.15-41.86,45.16-23.97,9.09-48.07,4.7-67.41-9.45s-29.71-34.31-29.86-57.2l-.26-38.1c-10.46-.29-19.42-2.1-28.9-6.84C3.89,292.7-12.63,245.62,11.18,213.11l48.11-65.68c5.31-7.24,8.83-13.95,8.81-23.26l-.09-34.84c-.06-22.24,6.96-42.91,21.6-59.8C104.94,11.85,126.75.1,150.78.08L262.05,0c45.75-.03,84.02,36.98,84.37,82.4l.33,42.13c.07,8.53,3.3,15.36,8.3,22.1l48.44,65.32c6.18,8.33,8.66,18.18,9.88,28.35,4.84,40.24-25.46,75.77-66.46,76.95l-.33,37.49c-.21,23.75-12.5,45.26-31.98,58.93-19.18,13.46-42.8,17.1-66.14,7.97-18.27-7.14-34.09-23.27-40.97-44.85ZM308.88,177.45c3.07-9.75,2.58-18.38,3.02-28.09,1.78-40.11-32.39-72.07-72.35-66.47-25.12,3.52-26.49,18.32-39,10.23-4.99-3.22-10.05-6.43-15.81-8.15-37.27-11.16-75.51,13.22-80.86,51.89-1.46,10.53-1.25,20.97.34,31.61,4.75,31.74,31.91,53.6,64.12,53.59l78.85-.03c28.92,0,53.02-17.04,61.7-44.6Z"/>
  <path class="cls-1" d="M308.88,177.45c-8.68,27.55-32.78,44.59-61.7,44.6l-78.85.03c-32.21.01-59.37-21.85-64.12-53.59-1.59-10.64-1.8-21.09-.34-31.61,5.35-38.66,43.59-63.05,80.86-51.89,5.75,1.72,10.82,4.92,15.81,8.15,12.51,8.08,13.89-6.71,39-10.23,39.96-5.6,74.13,26.36,72.35,66.47-.43,9.71.06,18.33-3.02,28.09ZM183.94,159.99c.08-6.63.21-12.62-.28-18.4-.85-9.99-9.64-16.83-18.9-16.59-8.67.22-17.06,7.22-17.75,16.78-.48,6.65-.42,13.46-.06,20.26.53,10.07,10.23,17.21,19.73,16.54s17.14-8.28,17.26-18.59ZM268.39,158.98c-.09-6.33.09-12.04-.42-17.53-.96-10.42-10.89-17.27-20.2-16.41-9.82.91-17,9-16.92,19.32l.12,16.12c.08,10.47,9.83,18.75,19.71,18.06,9.68-.67,17.86-8.77,17.71-19.57Z"/>
  <path class="cls-2" d="M183.94,159.99c-.13,10.31-8.22,17.96-17.26,18.59-9.5.67-19.2-6.47-19.73-16.54-.36-6.8-.42-13.61.06-20.26.69-9.56,9.09-16.56,17.75-16.78,9.26-.24,18.05,6.6,18.9,16.59.49,5.77.36,11.77.28,18.4Z"/>
  <path class="cls-2" d="M268.39,158.98c.16,10.79-8.02,18.89-17.71,19.57-9.87.69-19.63-7.59-19.71-18.06l-.12-16.12c-.08-10.32,7.1-18.41,16.92-19.32,9.31-.87,19.24,5.99,20.2,16.41.51,5.48.33,11.2.42,17.53Z"/>
</svg>